<?xml version="1.0" encoding="UTF-8"?>
<svg id="Layer_2" data-name="Layer 2" xmlns="http://www.w3.org/2000/svg" xmlns:xlink="http://www.w3.org/1999/xlink" viewBox="0 0 336.46 392.36">
  <defs>
    <style>
      .cls-1 {
        fill: url(#radial-gradient-8);
      }

      .cls-1, .cls-2, .cls-3, .cls-4, .cls-5, .cls-6, .cls-7, .cls-8 {
        stroke-width: 0px;
      }

      .cls-2 {
        fill: url(#radial-gradient-2);
      }

      .cls-3 {
        fill: url(#radial-gradient-7);
      }

      .cls-4 {
        fill: url(#radial-gradient-5);
      }

      .cls-5 {
        fill: url(#radial-gradient);
      }

      .cls-6 {
        fill: url(#radial-gradient-6);
      }

      .cls-7 {
        fill: url(#radial-gradient-3);
      }

      .cls-8 {
        fill: url(#radial-gradient-4);
      }
    </style>
    <radialGradient id="radial-gradient" cx="-110.57" cy="169.27" fx="-110.57" fy="169.27" r="672.29" gradientUnits="userSpaceOnUse">
      <stop offset=".15" stop-color="#241157"/>
      <stop offset=".45" stop-color="#4c1ca6"/>
      <stop offset=".69" stop-color="#9423b6"/>
    </radialGradient>
    <radialGradient id="radial-gradient-2" cx="-110.57" cy="169.27" fx="-110.57" fy="169.27" r="672.29" xlink:href="#radial-gradient"/>
    <radialGradient id="radial-gradient-3" cx="-110.57" cy="169.27" fx="-110.57" fy="169.27" r="672.29" xlink:href="#radial-gradient"/>
    <radialGradient id="radial-gradient-4" cx="-110.57" cy="169.27" fx="-110.57" fy="169.27" r="672.29" xlink:href="#radial-gradient"/>
    <radialGradient id="radial-gradient-5" cx="-110.57" cy="169.27" fx="-110.57" fy="169.27" r="672.29" xlink:href="#radial-gradient"/>
    <radialGradient id="radial-gradient-6" cx="-110.57" cy="169.27" fx="-110.57" fy="169.27" r="672.29" xlink:href="#radial-gradient"/>
    <radialGradient id="radial-gradient-7" cx="-110.57" cy="169.27" fx="-110.57" fy="169.27" r="672.29" xlink:href="#radial-gradient"/>
    <radialGradient id="radial-gradient-8" cx="-110.57" fx="-110.57" r="672.29" xlink:href="#radial-gradient"/>
  </defs>
  <g id="Layer_1-2" data-name="Layer 1">
    <g>
      <path class="cls-5" d="m259.72,325.42c0-2.41,0-4.31,0-6.21,0-75.97,0-151.94.11-227.9,0-2.28.87-4.98,2.25-6.78,19.48-25.52,42.33-47.22,71.2-61.99.72-.37,1.48-.69,2.62-1.21.13,1.27.33,2.25.33,3.24,0,75.61-.23,151.22.09,226.83.13,31.74-21.62,60.19-51.33,69.83-8.1,2.63-16.34,4.11-25.26,4.21Z"/>
      <path class="cls-2" d="m241.74,113.31c4.22,8.35,6.84,16.24,7.53,24.62.52,6.29.69,12.63.69,18.95.04,76.67.03,153.35.03,230.02,0,1.54,0,3.08,0,5.46-5.28-.62-10.33-.95-15.28-1.83-29.97-5.31-54.03-28.67-60.08-58.6-1.08-5.33-1.18-10.91-1.21-16.38-.14-24.48-.1-48.96-.05-73.45,0-1.48.39-3.1,1.08-4.41,16.23-30.81,32.42-61.63,48.86-92.33,5.68-10.6,11.98-20.86,18.44-32.05Z"/>
      <path class="cls-7" d="m86.82,332.48c0-1.49,0-2.51,0-3.53,0-39.05,0-78.1,0-117.15,0-31.5,20.58-59.86,50.54-69.69,10.96-3.59,19.4-4.89,25.96-3.86,0,1.19,0,2.46,0,3.73,0,32.36.03,64.72-.06,97.08,0,1.91-.58,4.05-1.55,5.69-11.99,20.38-24.99,40.05-40.86,57.7-9.61,10.69-20.13,20.34-31.76,28.79-.54.39-1.19.65-2.27,1.23Z"/>
      <path class="cls-8" d="m.1,361.53c.46-15.08-1.6-29.65,2.71-43.72,8.83-28.79,28.55-46.06,57.57-52.93,5.13-1.21,10.5-1.39,16.03-2.09.11,1.91.22,2.95.23,3.99.02,17.56.28,35.12-.11,52.67.22,10.15-1,14.39-2.02,19.39-.56,1.5-2.32,2.82-3.42,3.42-17.84,9.62-36.9,15.37-57,17.73-4.48.53-8.97,1-13.99,1.55Z"/>
      <path class="cls-4" d="m173.52,223.29V72.72c7.88,0,15.31,1.21,22.62,3.43,15.9,4.83,28.91,13.81,39.13,26.91,1.75,2.24,2.04,4.01.39,6.58-17,26.68-31.15,54.93-45.7,82.96-4.94,9.52-9.95,19.01-14.94,28.5-.26.49-.64.93-1.5,2.17Z"/>
      <path class="cls-6" d="m163.29,257.21c0,14.18.73,27.71-.15,41.14-1.84,28.17-16.28,48.45-41.07,61.49-10.83,5.7-22.49,8.16-35.24,8.3,0-5.35.51-10.61-.12-15.73-.93-7.54,1.7-12.03,8.12-16.48,21.02-14.54,37.57-33.68,52.19-54.49,5.46-7.77,10.6-15.77,16.27-24.24Z"/>
      <path class="cls-3" d="m259.61,74.95c.69-27.35,12.19-48.14,34.55-62.79C305.86,4.49,318.87.6,332.88.01c2.38-.1,3.4.46,3.45,3.04.22,11.61,1.15,8.99-8.19,13.99-20.29,10-37.72,24.06-53.05,40.69-5.07,5.5-10.01,11.11-15.49,17.21Z"/>
      <path class="cls-1" d="m70.22,350.31c-15.12,25.28-40.18,40.63-69.8,41.85v-23.29c23.21-1.3,48.3-8.86,69.8-18.57Z"/>
    </g>
  </g>
</svg>